<svg version="1.1" id="Layer_1" xmlns="http://www.w3.org/2000/svg" xmlns:xlink="http://www.w3.org/1999/xlink" x="0px" y="0px"
	 width="100%" viewBox="0 0 800 800" enable-background="new 0 0 800 800" xml:space="preserve">
<path fill="#FFFFFF" opacity="1.000000" stroke="none" 
	d="
M468.000000,801.000000 
	C312.000000,801.000000 156.500000,801.000000 1.000000,801.000000 
	C1.000000,534.333313 1.000000,267.666656 1.000000,1.000000 
	C267.666656,1.000000 534.333313,1.000000 801.000000,1.000000 
	C801.000000,267.666656 801.000000,534.333313 801.000000,801.000000 
	C690.166687,801.000000 579.333313,801.000000 468.000000,801.000000 
M570.118164,177.935364 
	C510.767731,133.139038 445.345703,103.414513 370.328857,97.627754 
	C326.823029,94.271736 284.198578,98.831009 242.889297,113.154335 
	C184.987869,133.230728 142.197693,170.284180 117.369537,226.895050 
	C101.056587,264.090332 95.345451,302.688995 102.990067,342.922089 
	C108.092979,369.778290 118.265320,394.811371 130.488358,419.051666 
	C152.602371,462.907471 179.069946,504.197571 205.831787,545.284241 
	C225.773575,575.900269 247.665924,605.044373 274.055542,630.494385 
	C299.399231,654.935608 327.815582,674.598328 362.258331,684.003113 
	C403.158478,695.171204 443.778748,691.900513 483.894135,679.992004 
	C544.811951,661.908142 595.147888,628.132996 632.784363,576.609253 
	C666.625183,530.281677 685.416626,478.192169 690.180969,420.997162 
	C694.748779,366.161469 682.939819,315.273010 653.987976,268.411377 
	C642.749084,250.220032 629.292053,233.749329 615.059143,217.170319 
	C618.629517,211.675461 622.011719,206.046616 625.808777,200.713150 
	C634.167236,188.972687 635.166138,182.234543 623.849792,172.434891 
	C619.735535,168.872040 615.662537,165.157593 611.105164,162.239304 
	C606.461487,159.265640 601.317688,155.003555 595.577454,157.608337 
	C590.312927,159.997253 585.732788,164.082153 581.202820,167.843369 
	C577.453247,170.956558 574.216614,174.687500 570.118164,177.935364 
z"/>
<path fill="#020304" opacity="1.000000" stroke="none" 
	d="
M615.029114,217.895294 
	C629.292053,233.749329 642.749084,250.220032 653.987976,268.411377 
	C682.939819,315.273010 694.748779,366.161469 690.180969,420.997162 
	C685.416626,478.192169 666.625183,530.281677 632.784363,576.609253 
	C595.147888,628.132996 544.811951,661.908142 483.894135,679.992004 
	C443.778748,691.900513 403.158478,695.171204 362.258331,684.003113 
	C327.815582,674.598328 299.399231,654.935608 274.055542,630.494385 
	C247.665924,605.044373 225.773575,575.900269 205.831787,545.284241 
	C179.069946,504.197571 152.602371,462.907471 130.488358,419.051666 
	C118.265320,394.811371 108.092979,369.778290 102.990067,342.922089 
	C95.345451,302.688995 101.056587,264.090332 117.369537,226.895050 
	C142.197693,170.284180 184.987869,133.230728 242.889297,113.154335 
	C284.198578,98.831009 326.823029,94.271736 370.328857,97.627754 
	C445.345703,103.414513 510.767731,133.139038 570.493408,178.385834 
	C568.332031,182.364273 565.795410,185.892212 562.961914,189.206543 
	C537.739441,169.849411 510.999573,153.681915 482.376495,140.731659 
	C440.626160,121.842125 396.881042,111.393349 350.948334,111.106819 
	C321.031464,110.920204 291.565491,114.436081 262.757355,122.960220 
	C201.760452,141.008789 156.117416,177.023300 130.454453,236.174850 
	C115.477295,270.696289 109.987839,306.583069 116.981049,343.948303 
	C121.862198,370.028595 131.540558,394.412140 143.562943,417.886078 
	C165.984818,461.665314 192.232971,503.178375 219.382828,544.121765 
	C237.182617,570.964661 256.850891,596.340210 280.109283,618.782410 
	C299.081299,637.088562 319.920990,652.739380 344.395416,662.892822 
	C380.282501,677.781067 417.507385,679.304504 455.166443,671.937866 
	C515.621399,660.112000 566.897461,631.665710 607.547852,585.087402 
	C650.101624,536.328186 672.169373,478.952789 676.733765,414.794464 
	C678.704529,387.093140 676.202698,359.631897 668.056335,332.817139 
	C655.952148,292.974823 634.682190,258.687073 606.162170,228.427109 
	C609.189087,224.711258 612.109131,221.303284 615.029114,217.895294 
z"/>
<path fill="#E9DCCF" opacity="1.000000" stroke="none" 
	d="
M563.258789,189.420166 
	C565.795410,185.892212 568.332031,182.364273 570.810730,178.490540 
	C574.216614,174.687500 577.453247,170.956558 581.202820,167.843369 
	C585.732788,164.082153 590.312927,159.997253 595.577454,157.608337 
	C601.317688,155.003555 606.461487,159.265640 611.105164,162.239304 
	C615.662537,165.157593 619.735535,168.872040 623.849792,172.434891 
	C635.166138,182.234543 634.167236,188.972687 625.808777,200.713150 
	C622.011719,206.046616 618.629517,211.675461 615.044128,217.532806 
	C612.109131,221.303284 609.189087,224.711258 605.858521,228.609970 
	C591.403198,246.192291 577.174377,263.136658 563.363159,280.414856 
	C548.114685,299.491089 531.248657,316.581818 509.278961,327.980316 
	C503.555725,330.949677 498.042725,334.322632 492.409302,337.467377 
	C489.045715,339.345001 486.063965,338.389984 483.188660,336.197784 
	C480.649292,334.261688 479.862610,332.059784 480.698761,328.838074 
	C483.611237,317.615753 485.774170,306.173645 489.198181,295.117401 
	C491.877716,286.465240 494.878052,277.532166 499.740143,270.021423 
	C507.937561,257.358429 517.485962,245.534729 526.900879,233.704041 
	C538.792358,218.761459 551.119568,204.165604 563.258789,189.420166 
M562.700134,272.162964 
	C562.806458,271.768768 562.912781,271.374603 563.014771,271.013550 
	C563.014771,271.013550 562.982239,271.021027 563.649048,271.126831 
	C563.763306,270.739014 563.877625,270.351196 564.002808,270.003052 
	C564.002808,270.003052 563.962952,269.993011 564.603271,270.077026 
	C564.728394,269.702057 564.853577,269.327118 565.001465,268.998688 
	C565.001465,268.998688 564.952637,268.981689 565.637085,268.974426 
	C565.906250,268.612915 566.175415,268.251434 566.419006,267.241882 
	C568.859558,263.429535 571.079346,259.451172 573.792480,255.843781 
	C577.851990,250.446411 582.258240,245.309921 587.166748,239.878296 
	C587.420471,239.519531 587.674194,239.160767 587.922485,238.957123 
	C587.922485,238.957123 587.770386,238.926178 588.391663,238.698441 
	C588.620789,238.143280 588.849915,237.588104 589.005554,237.016266 
	C589.005554,237.016266 589.047180,237.079086 589.784241,237.188629 
	C590.195618,236.460266 590.606995,235.731918 591.002441,235.002914 
	C591.002441,235.002914 591.005188,235.018478 591.668152,235.372879 
	C596.521057,230.439301 602.767334,226.425323 603.025146,217.601913 
	C602.730957,214.491104 602.436707,211.380295 602.057007,207.365265 
	C603.739929,209.588745 605.130005,211.425262 606.444092,213.161423 
	C611.269958,206.258972 616.046997,199.470474 620.775757,192.648529 
	C624.409485,187.406433 624.186523,184.442825 619.733398,179.866013 
	C616.295410,176.332611 612.966614,172.642502 609.194580,169.495163 
	C601.323914,162.928070 594.745361,161.977036 587.879456,169.668320 
	C586.882751,170.784836 585.710938,171.785477 584.904541,173.024811 
	C579.177429,181.826813 571.032776,188.532486 565.098755,197.376556 
	C555.412720,211.812683 543.690002,224.890900 532.699768,238.439163 
	C528.273438,243.895752 523.512512,249.080917 518.259155,254.402008 
	C511.464905,259.865967 505.605530,265.975494 503.996429,274.996948 
	C503.996429,274.996948 504.034973,274.999451 503.331879,275.062653 
	C503.220734,275.720245 503.109558,276.377808 502.985840,276.990601 
	C502.985840,276.990601 503.030975,276.979370 502.303894,277.263184 
	C502.184753,278.010498 502.065613,278.757782 501.747375,280.141937 
	C500.835754,282.459747 499.820770,284.742859 499.029633,287.101074 
	C494.710632,299.974976 490.363708,312.841064 486.266937,325.786011 
	C485.743317,327.440460 486.622406,329.538818 486.851685,331.431549 
	C488.863251,331.186066 491.144196,331.462769 492.832947,330.591583 
	C496.954254,328.465424 500.750763,325.721039 504.767700,323.379425 
	C521.373108,313.699799 537.187744,303.084076 549.247375,287.056244 
	C549.486938,286.683044 549.726501,286.309845 549.988525,286.002899 
	C549.988525,286.002899 549.936829,285.955750 550.643127,286.032166 
	C552.437744,283.689117 554.232361,281.346100 556.007507,279.006104 
	C556.007507,279.006104 556.007690,279.025696 556.717102,279.229187 
	C556.809326,278.810455 556.901489,278.391754 557.002441,278.002625 
	C557.002441,278.002625 556.972595,277.994812 557.645508,278.161102 
	C557.755188,277.759949 557.864868,277.358795 558.000000,277.000275 
	C558.000000,277.000275 557.958618,276.972626 558.633789,277.138519 
	C559.071899,276.400787 559.510071,275.663025 559.990845,274.991394 
	C559.990845,274.991394 559.916870,274.964600 560.602417,274.838135 
	C560.757019,274.233093 560.911682,273.628052 561.004028,273.002838 
	C561.004028,273.002838 561.036438,273.059692 561.718811,273.186371 
	C561.827393,272.796051 561.935913,272.405701 562.014282,272.013794 
	C562.014282,272.013794 562.019165,272.043640 562.700134,272.162964 
z"/>
<path fill="#014AAD" opacity="1.000000" stroke="none" 
	d="
M562.961975,189.206558 
	C551.119568,204.165604 538.792358,218.761459 526.900879,233.704041 
	C517.485962,245.534729 507.937561,257.358429 499.740143,270.021423 
	C494.878052,277.532166 491.877716,286.465240 489.198181,295.117401 
	C485.774170,306.173645 483.611237,317.615753 480.698761,328.838074 
	C479.862610,332.059784 480.649292,334.261688 483.188660,336.197784 
	C486.063965,338.389984 489.045715,339.345001 492.409302,337.467377 
	C498.042725,334.322632 503.555725,330.949677 509.278961,327.980316 
	C531.248657,316.581818 548.114685,299.491089 563.363159,280.414856 
	C577.174377,263.136658 591.403198,246.192291 605.751587,228.917862 
	C634.682190,258.687073 655.952148,292.974823 668.056335,332.817139 
	C676.202698,359.631897 678.704529,387.093140 676.733765,414.794464 
	C672.169373,478.952789 650.101624,536.328186 607.547852,585.087402 
	C566.897461,631.665710 515.621399,660.112000 455.166443,671.937866 
	C417.507385,679.304504 380.282501,677.781067 344.395416,662.892822 
	C319.920990,652.739380 299.081299,637.088562 280.109283,618.782410 
	C256.850891,596.340210 237.182617,570.964661 219.382828,544.121765 
	C192.232971,503.178375 165.984818,461.665314 143.562943,417.886078 
	C131.540558,394.412140 121.862198,370.028595 116.981049,343.948303 
	C109.987839,306.583069 115.477295,270.696289 130.454453,236.174850 
	C156.117416,177.023300 201.760452,141.008789 262.757355,122.960220 
	C291.565491,114.436081 321.031464,110.920204 350.948334,111.106819 
	C396.881042,111.393349 440.626160,121.842125 482.376495,140.731659 
	C510.999573,153.681915 537.739441,169.849411 562.961975,189.206558 
M298.258179,319.260742 
	C295.552673,309.145050 293.236755,298.904144 290.036133,288.947601 
	C286.578217,278.190521 282.498230,267.617188 278.293671,257.122314 
	C275.729767,250.722702 270.619293,248.051834 264.897797,249.177155 
	C259.008545,250.335464 255.109131,254.753662 254.939621,261.199402 
	C254.817703,265.836273 254.937103,270.554474 255.654037,275.125793 
	C259.311554,298.447296 262.617676,321.846954 267.167389,344.999054 
	C271.778809,368.465424 277.510376,391.720215 283.140717,414.973419 
	C285.294525,423.868439 291.626556,429.137207 300.672028,430.695496 
	C309.663300,432.244415 317.583893,429.600677 322.591187,422.011383 
	C327.692474,414.279602 332.124725,405.992279 335.902679,397.525513 
	C343.402618,380.717407 350.251587,363.618866 357.883179,345.415283 
	C359.424896,352.109283 360.689697,357.579346 361.944183,363.051758 
	C365.658325,379.254028 369.045044,395.540680 373.195404,411.630371 
	C375.895721,422.098755 382.981201,428.518341 394.123260,429.455994 
	C404.242676,430.307617 411.731903,425.917633 417.136841,417.453308 
	C418.946533,414.619263 419.169556,412.382507 417.343597,409.279449 
	C413.432251,402.632416 412.411835,395.295685 413.550507,387.602081 
	C415.630219,373.549866 423.283478,363.178314 434.321869,354.770538 
	C436.362122,353.216492 438.254150,350.680847 438.924652,348.243439 
	C443.202179,332.693665 447.233093,317.072937 451.114014,301.418274 
	C453.751526,290.779144 456.353394,280.109314 458.333893,269.336060 
	C459.932770,260.638550 455.202850,251.464218 448.148590,247.618225 
	C440.617065,243.512039 432.669586,244.684616 425.036652,250.912842 
	C419.635590,255.319916 416.386658,261.027313 415.047699,267.747192 
	C410.631165,289.912476 406.411743,312.117035 401.985870,334.280457 
	C400.419861,342.122345 398.477997,349.889221 396.707733,357.690338 
	C395.021790,356.029633 394.312836,354.529541 394.036896,352.953644 
	C390.655396,333.642517 387.432770,314.303101 383.963409,295.007996 
	C382.172363,285.046875 380.538757,274.998169 377.777313,265.289612 
	C375.570282,257.530090 369.654846,252.685989 361.285126,252.098221 
	C353.115601,251.524475 347.250519,255.618591 343.358093,262.533630 
	C341.905640,265.113983 340.890503,267.989288 340.005554,270.832703 
	C331.948669,296.718964 324.071960,322.661926 315.874054,348.503143 
	C314.109375,354.065887 311.262177,359.285248 308.913635,364.662781 
	C308.531311,364.594330 308.148987,364.525909 307.766663,364.457458 
	C304.676575,349.659912 301.586487,334.862366 298.258179,319.260742 
M448.494568,511.026825 
	C456.434357,518.211243 465.580994,522.815674 476.445618,522.483521 
	C491.440613,522.025085 506.310394,520.383911 520.599365,515.334229 
	C540.065308,508.455017 550.406921,490.010315 546.371399,469.704742 
	C541.708130,446.240417 527.394226,430.838257 506.477386,420.471466 
	C493.522308,414.050690 480.743439,407.227417 468.208221,400.023163 
	C459.927429,395.264038 460.280579,389.053864 468.432129,384.057709 
	C483.275360,374.960114 499.069458,372.495453 515.862793,377.406189 
	C519.689331,378.525177 523.434753,379.923187 527.211243,381.211304 
	C535.097900,383.901367 538.752808,381.534454 537.963013,373.458527 
	C537.556519,369.301544 536.316895,364.779968 534.045044,361.358490 
	C530.831055,356.518036 526.314331,352.542603 522.773682,348.657410 
	C529.065125,346.966003 536.014648,344.923737 543.052307,343.252502 
	C550.734497,341.428253 558.444153,338.531830 566.290649,342.917603 
	C575.024475,347.799316 584.388489,347.778839 593.962646,346.359070 
	C596.357727,346.003937 599.167786,345.736786 601.274963,346.633179 
	C609.140320,349.979218 616.924500,349.687012 624.554749,346.559998 
	C629.043823,344.720245 634.022522,343.189514 636.708191,338.373505 
	C627.084106,341.467163 617.671204,344.956390 606.556274,343.495697 
	C609.705444,340.909851 612.953735,339.311584 614.413452,336.709778 
	C615.606140,334.583893 615.307129,331.054932 614.498535,328.521729 
	C613.575012,325.628387 610.865295,324.540192 607.548401,325.261505 
	C597.832886,327.374481 594.533142,331.131592 594.372131,340.798065 
	C584.494568,343.110718 575.149048,342.303711 565.863831,337.566101 
	C562.300476,335.747925 557.475098,335.334534 553.409790,335.822449 
	C547.532043,336.527893 541.889648,339.011932 536.025696,340.057587 
	C526.920898,341.681213 517.739441,342.979248 508.540436,343.929993 
	C503.395233,344.461761 498.749664,341.609558 493.154358,341.818695 
	C474.276733,342.524475 457.529144,347.975220 442.917084,359.876648 
	C423.549286,375.651550 420.421082,400.556671 435.677307,419.760437 
	C439.579071,424.671753 444.427979,428.899567 449.183197,433.050232 
	C460.683105,443.088165 474.361084,449.068085 488.720947,453.756775 
	C497.228180,456.534485 503.148651,462.017456 505.732300,470.956268 
	C496.513214,474.428192 487.565460,475.346161 478.381714,473.071960 
	C473.378326,471.832947 468.411316,470.433838 463.380157,469.323151 
	C453.616760,467.167755 444.084961,470.512054 439.320892,477.592804 
	C434.380249,484.936005 434.869904,494.413696 440.936035,502.797211 
	C442.968994,505.606750 445.609192,507.976959 448.494568,511.026825 
M461.010345,327.426849 
	C462.154541,327.586670 463.339081,328.008301 464.432709,327.839844 
	C465.789917,327.630707 467.071899,326.933258 468.386383,326.446747 
	C467.597382,325.331848 467.017853,323.938202 465.978180,323.156921 
	C463.376648,321.201965 460.566437,319.524750 457.019928,317.198181 
	C455.876221,320.253052 454.463257,322.596222 454.433289,324.956940 
	C454.424011,325.689575 458.167511,326.469788 461.010345,327.426849 
M462.295502,310.123352 
	C464.636932,313.766144 466.437500,317.977600 472.434937,319.609161 
	C471.382660,314.578339 470.527435,310.489594 469.371002,304.960846 
	C466.449677,306.759674 464.303375,308.081268 462.295502,310.123352 
z"/>
<path fill="#0D0B08" opacity="1.000000" stroke="none" 
	d="
M518.903809,254.389603 
	C523.512512,249.080917 528.273438,243.895752 532.699768,238.439163 
	C543.690002,224.890900 555.412720,211.812683 565.098755,197.376556 
	C571.032776,188.532486 579.177429,181.826813 584.904541,173.024811 
	C585.710938,171.785477 586.882751,170.784836 587.879456,169.668320 
	C594.745361,161.977036 601.323914,162.928070 609.194580,169.495163 
	C612.966614,172.642502 616.295410,176.332611 619.733398,179.866013 
	C624.186523,184.442825 624.409485,187.406433 620.775757,192.648529 
	C616.046997,199.470474 611.269958,206.258972 606.444092,213.161423 
	C605.130005,211.425262 603.739929,209.588745 602.057007,207.365265 
	C602.436707,211.380295 602.730957,214.491104 602.709717,218.160828 
	C598.597900,224.152634 594.801514,229.585556 591.005188,235.018478 
	C591.005188,235.018478 591.002441,235.002914 590.697021,235.020599 
	C589.943420,235.718552 589.495300,236.398804 589.047180,237.079071 
	C589.047180,237.079086 589.005554,237.016266 588.754639,237.145966 
	C588.259338,237.825821 588.014893,238.376007 587.770386,238.926178 
	C587.770386,238.926178 587.922485,238.957123 587.590576,238.944931 
	C587.011536,239.309311 586.764282,239.685898 586.517029,240.062469 
	C582.258240,245.309921 577.851990,250.446411 573.792480,255.843781 
	C571.079346,259.451172 568.859558,263.429535 566.049744,267.474304 
	C565.437866,268.131683 565.195251,268.556702 564.952637,268.981689 
	C564.952637,268.981689 565.001465,268.998688 564.687500,268.971191 
	C564.236694,269.293457 564.099792,269.643250 563.962952,269.993011 
	C563.962952,269.993011 564.002808,270.003052 563.696838,269.989380 
	C563.254639,270.324158 563.118408,270.672577 562.982239,271.021027 
	C562.982239,271.021027 563.014771,271.013550 562.724915,271.017303 
	C562.296448,271.361908 562.157776,271.702759 562.019165,272.043640 
	C562.019165,272.043640 562.014282,272.013794 561.750488,272.050293 
	C561.336670,272.411072 561.186523,272.735382 561.036438,273.059692 
	C561.036438,273.059692 561.004028,273.002838 560.717041,273.125092 
	C560.258911,273.819763 560.087891,274.392181 559.916870,274.964600 
	C559.916870,274.964600 559.990845,274.991394 559.634766,274.874329 
	C558.838684,275.495728 558.398682,276.234192 557.958618,276.972626 
	C557.958618,276.972626 558.000000,277.000275 557.681152,276.963013 
	C557.232361,277.282074 557.102478,277.638458 556.972595,277.994812 
	C556.972595,277.994812 557.002441,278.002625 556.695312,277.986511 
	C556.261292,278.322144 556.134460,278.673920 556.007690,279.025696 
	C556.007690,279.025696 556.007507,279.006104 555.677856,279.046143 
	C553.544495,281.376007 551.740662,283.665894 549.936829,285.955750 
	C549.936829,285.955750 549.988525,286.002899 549.630371,285.956635 
	C549.021667,286.293488 548.771118,286.676605 548.520630,287.059723 
	C537.187744,303.084076 521.373108,313.699799 504.767700,323.379425 
	C500.750763,325.721039 496.954254,328.465424 492.832947,330.591583 
	C491.144196,331.462769 488.863251,331.186066 486.851685,331.431549 
	C486.622406,329.538818 485.743317,327.440460 486.266937,325.786011 
	C490.363708,312.841064 494.710632,299.974976 499.029633,287.101074 
	C499.820770,284.742859 500.835754,282.459747 502.125549,279.587708 
	C502.679443,278.348785 502.855225,277.664062 503.030975,276.979370 
	C503.030975,276.979370 502.985840,276.990601 503.305695,276.916687 
	C503.762024,276.228363 503.898499,275.613892 504.034973,274.999451 
	C504.034973,274.999451 503.996429,274.996948 504.340759,274.932068 
	C509.424622,268.041321 514.164185,261.215454 518.903809,254.389603 
M585.008301,233.007919 
	C585.008301,233.007919 585.024780,233.074738 585.617798,233.006729 
	C585.804932,232.663940 585.992065,232.321167 586.744690,231.654541 
	C590.794312,226.557510 594.843994,221.460480 598.871399,216.391464 
	C592.401184,212.223831 586.879028,208.691605 581.386108,205.114441 
	C579.597290,203.949509 577.884766,202.667282 576.282410,200.626266 
	C575.452759,199.203903 574.623108,197.781540 573.205566,195.351212 
	C568.597351,201.319260 565.266296,205.633286 561.997559,210.000641 
	C561.997559,210.000641 561.944885,209.938202 561.288757,210.042084 
	C559.870117,211.724960 558.451477,213.407852 557.071167,215.061157 
	C557.071167,215.061157 557.077820,215.013184 556.616821,215.394791 
	C556.308960,215.898834 556.001099,216.402863 555.150818,217.304352 
	C554.797302,218.014023 554.554688,218.811264 554.073730,219.420303 
	C546.361389,229.186752 538.618713,238.929184 530.340393,248.917404 
	C530.208435,249.274811 530.076477,249.632217 530.000000,249.999786 
	C530.000000,249.999786 529.968262,249.953247 529.351501,250.161072 
	C528.877991,251.088257 528.404480,252.015457 528.000000,252.997681 
	C528.000000,252.997681 527.928711,252.947403 527.210938,253.102432 
	C527.086914,253.710922 526.962952,254.319397 526.933655,254.942917 
	C526.933655,254.942917 526.888428,254.858398 526.238953,254.536484 
	C525.807434,255.336700 525.375977,256.136902 524.993286,256.991333 
	C524.993286,256.991333 524.930542,256.954437 524.280701,257.076721 
	C523.500610,258.368164 522.720459,259.659607 521.994934,261.002319 
	C521.994934,261.002319 521.954956,260.939545 521.390015,261.006897 
	C521.247070,261.343597 521.104126,261.680298 521.014771,262.009888 
	C521.014771,262.009888 521.005920,261.956573 520.421875,262.233856 
	C520.249023,262.816711 520.076172,263.399567 519.978882,263.989502 
	C519.978882,263.989502 519.979126,263.913635 519.319946,263.910217 
	C519.115295,264.296539 518.910645,264.682892 518.216797,265.476166 
	C514.719604,270.191284 511.222443,274.906403 507.606476,279.781677 
	C508.612915,280.273285 509.026093,280.613586 509.477173,280.674896 
	C517.219666,281.727570 517.216187,281.719879 517.057251,289.935944 
	C516.994141,293.197815 519.164124,293.342590 521.445251,292.801453 
	C523.275452,292.367279 524.999573,291.486023 527.003052,290.713623 
	C527.476135,292.222687 527.896118,293.122955 528.029480,294.063904 
	C528.607239,298.141327 529.982361,299.678925 533.532593,296.167664 
	C535.850647,293.874969 538.738953,292.092651 540.778625,289.596954 
	C546.858887,282.157257 552.665649,274.493164 558.541748,266.887787 
	C562.666504,261.549194 566.729980,256.163208 571.517151,250.757339 
	C575.704712,245.193222 579.892334,239.629105 584.012939,233.998322 
	C584.012939,233.998322 584.056763,234.081909 584.673767,234.129669 
	C584.807251,233.762482 584.940735,233.395294 585.008301,233.007919 
M589.216553,172.270401 
	C587.292053,174.516129 585.367615,176.761871 582.922668,179.397278 
	C583.312927,180.607071 583.330200,182.321823 584.160828,182.935532 
	C587.088623,185.098526 590.436829,186.692154 593.366394,188.853104 
	C599.087097,193.073029 604.632935,197.530014 610.325012,201.946121 
	C612.654663,198.983154 614.943848,196.333450 616.934814,193.475952 
	C619.685669,189.527756 619.277039,185.436951 615.576172,182.429565 
	C611.492859,179.111343 607.090881,176.185303 602.711975,172.378983 
	C601.196106,171.417953 599.771912,170.246155 598.145752,169.538742 
	C594.492310,167.949417 591.754822,169.120117 589.882568,172.869049 
	C589.882568,172.869049 589.850098,172.763290 589.216553,172.270401 
M525.461487,305.664124 
	C525.146851,302.317047 524.832153,298.969971 524.499695,295.433868 
	C514.727844,298.923035 513.995667,298.498993 513.770020,290.838867 
	C513.722595,289.229950 512.543396,286.310944 511.849976,286.300140 
	C509.047607,286.256592 505.393341,284.218475 503.657410,288.456970 
	C500.148346,297.024567 496.628632,305.587769 493.187622,313.971741 
	C495.777557,315.604889 498.220978,316.575104 499.845459,318.311462 
	C501.973541,320.586060 503.395508,320.213440 505.697357,318.624054 
	C511.968262,314.294098 518.451904,310.272247 525.461487,305.664124 
z"/>
<path fill="#E2AE0F" opacity="1.000000" stroke="none" 
	d="
M518.581482,254.395798 
	C514.164185,261.215454 509.424622,268.041321 504.349121,274.949432 
	C505.605530,265.975494 511.464905,259.865967 518.581482,254.395798 
z"/>
<path fill="#EAB618" opacity="1.000000" stroke="none" 
	d="
M591.336670,235.195679 
	C594.801514,229.585556 598.597900,224.152634 602.642212,218.544800 
	C602.767334,226.425323 596.521057,230.439301 591.336670,235.195679 
z"/>
<path fill="#ECB613" opacity="1.000000" stroke="none" 
	d="
M550.289978,285.993958 
	C551.740662,283.665894 553.544495,281.376007 555.687622,279.044617 
	C554.232361,281.346100 552.437744,283.689117 550.289978,285.993958 
z"/>
<path fill="#ECB613" opacity="1.000000" stroke="none" 
	d="
M558.296204,277.055573 
	C558.398682,276.234192 558.838684,275.495728 559.613464,274.841309 
	C559.510071,275.663025 559.071899,276.400787 558.296204,277.055573 
z"/>
<path fill="#EAB618" opacity="1.000000" stroke="none" 
	d="
M589.415710,237.133850 
	C589.495300,236.398804 589.943420,235.718552 590.704956,235.020935 
	C590.606995,235.731918 590.195618,236.460266 589.415710,237.133850 
z"/>
<path fill="#E2AE0F" opacity="1.000000" stroke="none" 
	d="
M502.667419,277.121277 
	C502.855225,277.664062 502.679443,278.348785 502.225098,279.269287 
	C502.065613,278.757782 502.184753,278.010498 502.667419,277.121277 
z"/>
<path fill="#E2AE0F" opacity="1.000000" stroke="none" 
	d="
M503.683411,275.031067 
	C503.898499,275.613892 503.762024,276.228363 503.311981,276.939087 
	C503.109558,276.377808 503.220734,275.720245 503.683411,275.031067 
z"/>
<path fill="#ECB613" opacity="1.000000" stroke="none" 
	d="
M560.259644,274.901367 
	C560.087891,274.392181 560.258911,273.819763 560.748169,273.135193 
	C560.911682,273.628052 560.757019,274.233093 560.259644,274.901367 
z"/>
<path fill="#EAB618" opacity="1.000000" stroke="none" 
	d="
M588.081055,238.812317 
	C588.014893,238.376007 588.259338,237.825821 588.791382,237.154297 
	C588.849915,237.588104 588.620789,238.143280 588.081055,238.812317 
z"/>
<path fill="#ECB613" opacity="1.000000" stroke="none" 
	d="
M556.362427,279.127441 
	C556.134460,278.673920 556.261292,278.322144 556.690918,277.971710 
	C556.901489,278.391754 556.809326,278.810455 556.362427,279.127441 
z"/>
<path fill="#EAB618" opacity="1.000000" stroke="none" 
	d="
M586.841919,239.970383 
	C586.764282,239.685898 587.011536,239.309311 587.593323,238.867371 
	C587.674194,239.160767 587.420471,239.519531 586.841919,239.970383 
z"/>
<path fill="#ECB613" opacity="1.000000" stroke="none" 
	d="
M548.884033,287.057983 
	C548.771118,286.676605 549.021667,286.293488 549.619141,285.923523 
	C549.726501,286.309845 549.486938,286.683044 548.884033,287.057983 
z"/>
<path fill="#ECB613" opacity="1.000000" stroke="none" 
	d="
M563.315674,271.073914 
	C563.118408,270.672577 563.254639,270.324158 563.691406,269.969543 
	C563.877625,270.351196 563.763306,270.739014 563.315674,271.073914 
z"/>
<path fill="#ECB613" opacity="1.000000" stroke="none" 
	d="
M557.309082,278.077942 
	C557.102478,277.638458 557.232361,277.282074 557.668457,276.941711 
	C557.864868,277.358795 557.755188,277.759949 557.309082,278.077942 
z"/>
<path fill="#ECB613" opacity="1.000000" stroke="none" 
	d="
M565.294861,268.978088 
	C565.195251,268.556702 565.437866,268.131683 566.062500,267.798309 
	C566.175415,268.251434 565.906250,268.612915 565.294861,268.978088 
z"/>
<path fill="#ECB613" opacity="1.000000" stroke="none" 
	d="
M564.283081,270.035034 
	C564.099792,269.643250 564.236694,269.293457 564.676147,268.947937 
	C564.853577,269.327118 564.728394,269.702057 564.283081,270.035034 
z"/>
<path fill="#ECB613" opacity="1.000000" stroke="none" 
	d="
M561.377625,273.123047 
	C561.186523,272.735382 561.336670,272.411072 561.765625,272.051086 
	C561.935913,272.405701 561.827393,272.796051 561.377625,273.123047 
z"/>
<path fill="#ECB613" opacity="1.000000" stroke="none" 
	d="
M562.359619,272.103271 
	C562.157776,271.702759 562.296448,271.361908 562.727051,271.000732 
	C562.912781,271.374603 562.806458,271.768768 562.359619,272.103271 
z"/>
<path fill="#000001" opacity="1.000000" stroke="none" 
	d="
M298.377319,319.662781 
	C301.586487,334.862366 304.676575,349.659912 307.766663,364.457458 
	C308.148987,364.525909 308.531311,364.594330 308.913635,364.662781 
	C311.262177,359.285248 314.109375,354.065887 315.874054,348.503143 
	C324.071960,322.661926 331.948669,296.718964 340.005554,270.832703 
	C340.890503,267.989288 341.905640,265.113983 343.358093,262.533630 
	C347.250519,255.618591 353.115601,251.524475 361.285126,252.098221 
	C369.654846,252.685989 375.570282,257.530090 377.777313,265.289612 
	C380.538757,274.998169 382.172363,285.046875 383.963409,295.007996 
	C387.432770,314.303101 390.655396,333.642517 394.036896,352.953644 
	C394.312836,354.529541 395.021790,356.029633 396.707733,357.690338 
	C398.477997,349.889221 400.419861,342.122345 401.985870,334.280457 
	C406.411743,312.117035 410.631165,289.912476 415.047699,267.747192 
	C416.386658,261.027313 419.635590,255.319916 425.036652,250.912842 
	C432.669586,244.684616 440.617065,243.512039 448.148590,247.618225 
	C455.202850,251.464218 459.932770,260.638550 458.333893,269.336060 
	C456.353394,280.109314 453.751526,290.779144 451.114014,301.418274 
	C447.233093,317.072937 443.202179,332.693665 438.924652,348.243439 
	C438.254150,350.680847 436.362122,353.216492 434.321869,354.770538 
	C423.283478,363.178314 415.630219,373.549866 413.550507,387.602081 
	C412.411835,395.295685 413.432251,402.632416 417.343597,409.279449 
	C419.169556,412.382507 418.946533,414.619263 417.136841,417.453308 
	C411.731903,425.917633 404.242676,430.307617 394.123260,429.455994 
	C382.981201,428.518341 375.895721,422.098755 373.195404,411.630371 
	C369.045044,395.540680 365.658325,379.254028 361.944183,363.051758 
	C360.689697,357.579346 359.424896,352.109283 357.883179,345.415283 
	C350.251587,363.618866 343.402618,380.717407 335.902679,397.525513 
	C332.124725,405.992279 327.692474,414.279602 322.591187,422.011383 
	C317.583893,429.600677 309.663300,432.244415 300.672028,430.695496 
	C291.626556,429.137207 285.294525,423.868439 283.140717,414.973419 
	C277.510376,391.720215 271.778809,368.465424 267.167389,344.999054 
	C262.617676,321.846954 259.311554,298.447296 255.654037,275.125793 
	C254.937103,270.554474 254.817703,265.836273 254.939621,261.199402 
	C255.109131,254.753662 259.008545,250.335464 264.897797,249.177155 
	C270.619293,248.051834 275.729767,250.722702 278.293671,257.122314 
	C282.498230,267.617188 286.578217,278.190521 290.036133,288.947601 
	C293.236755,298.904144 295.552673,309.145050 298.377319,319.662781 
z"/>
<path fill="#000102" opacity="1.000000" stroke="none" 
	d="
M448.233185,510.787415 
	C445.609192,507.976959 442.968994,505.606750 440.936035,502.797211 
	C434.869904,494.413696 434.380249,484.936005 439.320892,477.592804 
	C444.084961,470.512054 453.616760,467.167755 463.380157,469.323151 
	C468.411316,470.433838 473.378326,471.832947 478.381714,473.071960 
	C487.565460,475.346161 496.513214,474.428192 505.732300,470.956268 
	C503.148651,462.017456 497.228180,456.534485 488.720947,453.756775 
	C474.361084,449.068085 460.683105,443.088165 449.183197,433.050232 
	C444.427979,428.899567 439.579071,424.671753 435.677307,419.760437 
	C420.421082,400.556671 423.549286,375.651550 442.917084,359.876648 
	C457.529144,347.975220 474.276733,342.524475 493.154358,341.818695 
	C498.749664,341.609558 503.395233,344.461761 508.540436,343.929993 
	C517.739441,342.979248 526.920898,341.681213 536.025696,340.057587 
	C541.889648,339.011932 547.532043,336.527893 553.409790,335.822449 
	C557.475098,335.334534 562.300476,335.747925 565.863831,337.566101 
	C575.149048,342.303711 584.494568,343.110718 594.372131,340.798065 
	C594.533142,331.131592 597.832886,327.374481 607.548401,325.261505 
	C610.865295,324.540192 613.575012,325.628387 614.498535,328.521729 
	C615.307129,331.054932 615.606140,334.583893 614.413452,336.709778 
	C612.953735,339.311584 609.705444,340.909851 606.556274,343.495697 
	C617.671204,344.956390 627.084106,341.467163 636.708191,338.373505 
	C634.022522,343.189514 629.043823,344.720245 624.554749,346.559998 
	C616.924500,349.687012 609.140320,349.979218 601.274963,346.633179 
	C599.167786,345.736786 596.357727,346.003937 593.962646,346.359070 
	C584.388489,347.778839 575.024475,347.799316 566.290649,342.917603 
	C558.444153,338.531830 550.734497,341.428253 543.052307,343.252502 
	C536.014648,344.923737 529.065125,346.966003 522.773682,348.657410 
	C526.314331,352.542603 530.831055,356.518036 534.045044,361.358490 
	C536.316895,364.779968 537.556519,369.301544 537.963013,373.458527 
	C538.752808,381.534454 535.097900,383.901367 527.211243,381.211304 
	C523.434753,379.923187 519.689331,378.525177 515.862793,377.406189 
	C499.069458,372.495453 483.275360,374.960114 468.432129,384.057709 
	C460.280579,389.053864 459.927429,395.264038 468.208221,400.023163 
	C480.743439,407.227417 493.522308,414.050690 506.477386,420.471466 
	C527.394226,430.838257 541.708130,446.240417 546.371399,469.704742 
	C550.406921,490.010315 540.065308,508.455017 520.599365,515.334229 
	C506.310394,520.383911 491.440613,522.025085 476.445618,522.483521 
	C465.580994,522.815674 456.434357,518.211243 448.233185,510.787415 
M601.999207,332.329193 
	C601.155823,333.351288 599.685242,334.345459 599.638184,335.403015 
	C599.586792,336.557556 600.727112,338.682129 601.567749,338.798676 
	C604.970886,339.270386 610.027466,334.337769 610.566833,329.462708 
	C607.621216,330.324646 605.090210,331.065247 601.999207,332.329193 
z"/>
<path fill="#00040B" opacity="1.000000" stroke="none" 
	d="
M460.601624,327.327515 
	C458.167511,326.469788 454.424011,325.689575 454.433289,324.956940 
	C454.463257,322.596222 455.876221,320.253052 457.019928,317.198181 
	C460.566437,319.524750 463.376648,321.201965 465.978180,323.156921 
	C467.017853,323.938202 467.597382,325.331848 468.386383,326.446716 
	C467.071899,326.933258 465.789917,327.630707 464.432709,327.839844 
	C463.339081,328.008301 462.154541,327.586670 460.601624,327.327515 
z"/>
<path fill="#000309" opacity="1.000000" stroke="none" 
	d="
M462.226318,309.763123 
	C464.303375,308.081268 466.449677,306.759674 469.371002,304.960846 
	C470.527435,310.489594 471.382660,314.578339 472.434937,319.609161 
	C466.437500,317.977600 464.636932,313.766144 462.226318,309.763123 
z"/>
<path fill="#FCBE01" opacity="1.000000" stroke="none" 
	d="
M576.137390,201.438690 
	C577.884766,202.667282 579.597290,203.949509 581.386108,205.114441 
	C586.879028,208.691605 592.401184,212.223831 598.871399,216.391464 
	C594.843994,221.460480 590.794312,226.557510 586.138672,231.849243 
	C585.363403,232.387543 585.194092,232.731155 585.024780,233.074753 
	C585.024780,233.074738 585.008301,233.007919 584.711914,232.987259 
	C584.295898,233.338364 584.176331,233.710144 584.056763,234.081909 
	C584.056763,234.081909 584.012939,233.998322 583.703979,233.927277 
	C580.568481,236.818756 577.484558,239.583176 575.001648,242.810089 
	C573.196472,245.156174 572.185730,248.113541 570.820801,250.798370 
	C566.729980,256.163208 562.666504,261.549194 558.541748,266.887787 
	C552.665649,274.493164 546.858887,282.157257 540.778625,289.596954 
	C538.738953,292.092651 535.850647,293.874969 533.532593,296.167664 
	C529.982361,299.678925 528.607239,298.141327 528.029480,294.063904 
	C527.896118,293.122955 527.476135,292.222687 527.003052,290.713623 
	C524.999573,291.486023 523.275452,292.367279 521.445251,292.801453 
	C519.164124,293.342590 516.994141,293.197815 517.057251,289.935944 
	C517.216187,281.719879 517.219666,281.727570 509.477173,280.674896 
	C509.026093,280.613586 508.612915,280.273285 507.606476,279.781677 
	C511.222443,274.906403 514.719604,270.191284 518.737915,265.150970 
	C519.499084,264.521729 519.739075,264.217682 519.979126,263.913635 
	C519.979126,263.913635 519.978882,263.989502 520.239380,263.844635 
	C520.668640,263.118713 520.837280,262.537628 521.005920,261.956573 
	C521.005920,261.956573 521.014771,262.009888 521.323853,262.046051 
	C521.740295,261.701324 521.847595,261.320435 521.954956,260.939545 
	C521.954956,260.939545 521.994934,261.002319 522.331238,261.098694 
	C523.421875,259.781525 524.176208,258.367981 524.930542,256.954437 
	C524.930542,256.954437 524.993286,256.991333 525.309448,257.130127 
	C526.046509,256.465424 526.467468,255.661926 526.888428,254.858398 
	C526.888428,254.858398 526.933655,254.942917 527.243530,254.887360 
	C527.678528,254.203674 527.803589,253.575546 527.928711,252.947403 
	C527.928711,252.947403 528.000000,252.997681 528.338013,253.062134 
	C529.106750,252.068817 529.537476,251.011032 529.968262,249.953247 
	C529.968262,249.953247 530.000000,249.999786 530.318237,249.997467 
	C530.718567,249.555801 530.800781,249.116455 530.882935,248.677094 
	C538.618713,238.929184 546.361389,229.186752 554.073730,219.420303 
	C554.554688,218.811264 554.797302,218.014023 555.757080,217.057632 
	C556.601562,216.211670 556.839722,215.612442 557.077881,215.013184 
	C557.077820,215.013184 557.071167,215.061157 557.407715,215.075592 
	C559.144409,213.372742 560.544678,211.655472 561.944885,209.938202 
	C561.944885,209.938202 561.997559,210.000641 562.303589,210.116302 
	C565.415283,207.793518 568.088806,205.172928 571.086365,202.999115 
	C572.436951,202.019684 574.433777,201.931320 576.137390,201.438690 
z"/>
<path fill="#EADECF" opacity="1.000000" stroke="none" 
	d="
M525.156372,305.896210 
	C518.451904,310.272247 511.968262,314.294098 505.697357,318.624054 
	C503.395508,320.213440 501.973541,320.586060 499.845459,318.311462 
	C498.220978,316.575104 495.777557,315.604889 493.187622,313.971741 
	C496.628632,305.587769 500.148346,297.024567 503.657410,288.456970 
	C505.393341,284.218475 509.047607,286.256592 511.849976,286.300140 
	C512.543396,286.310944 513.722595,289.229950 513.770020,290.838867 
	C513.995667,298.498993 514.727844,298.923035 524.499695,295.433868 
	C524.832153,298.969971 525.146851,302.317047 525.156372,305.896210 
z"/>
<path fill="#D356B0" opacity="1.000000" stroke="none" 
	d="
M602.827698,173.088440 
	C607.090881,176.185303 611.492859,179.111343 615.576172,182.429565 
	C619.277039,185.436951 619.685669,189.527756 616.934814,193.475952 
	C614.943848,196.333450 612.654663,198.983154 610.325012,201.946121 
	C604.632935,197.530014 599.087097,193.073029 593.366394,188.853104 
	C590.436829,186.692154 587.088623,185.098526 584.160828,182.935532 
	C583.330200,182.321823 583.312927,180.607071 583.570862,179.207779 
	C586.096069,176.933273 587.973083,174.848267 589.850098,172.763275 
	C589.850098,172.763290 589.882568,172.869049 590.237549,172.907623 
	C594.670959,172.993622 598.749329,173.041031 602.827698,173.088440 
z"/>
<path fill="#E1D2B7" opacity="1.000000" stroke="none" 
	d="
M576.209900,201.032471 
	C574.433777,201.931320 572.436951,202.019684 571.086365,202.999115 
	C568.088806,205.172928 565.415283,207.793518 562.272461,210.089630 
	C565.266296,205.633286 568.597351,201.319260 573.205566,195.351212 
	C574.623108,197.781540 575.452759,199.203903 576.209900,201.032471 
z"/>
<path fill="#E2D3B8" opacity="1.000000" stroke="none" 
	d="
M571.168945,250.777863 
	C572.185730,248.113541 573.196472,245.156174 575.001648,242.810089 
	C577.484558,239.583176 580.568481,236.818756 583.737427,233.960602 
	C579.892334,239.629105 575.704712,245.193222 571.168945,250.777863 
z"/>
<path fill="#E4D2CA" opacity="1.000000" stroke="none" 
	d="
M602.769836,172.733704 
	C598.749329,173.041031 594.670959,172.993622 590.183472,172.896332 
	C591.754822,169.120117 594.492310,167.949417 598.145752,169.538742 
	C599.771912,170.246155 601.196106,171.417953 602.769836,172.733704 
z"/>
<path fill="#E4D2CA" opacity="1.000000" stroke="none" 
	d="
M589.533325,172.516846 
	C587.973083,174.848267 586.096069,176.933273 583.831055,179.012939 
	C585.367615,176.761871 587.292053,174.516129 589.533325,172.516846 
z"/>
<path fill="#E1D2B7" opacity="1.000000" stroke="none" 
	d="
M561.616821,209.990143 
	C560.544678,211.655472 559.144409,213.372742 557.388489,215.090378 
	C558.451477,213.407852 559.870117,211.724960 561.616821,209.990143 
z"/>
<path fill="#D7C6A3" opacity="1.000000" stroke="none" 
	d="
M524.605591,257.015564 
	C524.176208,258.367981 523.421875,259.781525 522.303955,261.073059 
	C522.720459,259.659607 523.500610,258.368164 524.605591,257.015564 
z"/>
<path fill="#D7C6A3" opacity="1.000000" stroke="none" 
	d="
M529.659912,250.057159 
	C529.537476,251.011032 529.106750,252.068817 528.303467,253.034637 
	C528.404480,252.015457 528.877991,251.088257 529.659912,250.057159 
z"/>
<path fill="#D7C6A3" opacity="1.000000" stroke="none" 
	d="
M526.563721,254.697449 
	C526.467468,255.661926 526.046509,256.465424 525.285034,257.103027 
	C525.375977,256.136902 525.807434,255.336700 526.563721,254.697449 
z"/>
<path fill="#E1D2B7" opacity="1.000000" stroke="none" 
	d="
M556.847351,215.203995 
	C556.839722,215.612442 556.601562,216.211670 556.028320,216.858917 
	C556.001099,216.402863 556.308960,215.898834 556.847351,215.203995 
z"/>
<path fill="#D7C6A3" opacity="1.000000" stroke="none" 
	d="
M520.713867,262.095215 
	C520.837280,262.537628 520.668640,263.118713 520.201660,263.841064 
	C520.076172,263.399567 520.249023,262.816711 520.713867,262.095215 
z"/>
<path fill="#D7C6A3" opacity="1.000000" stroke="none" 
	d="
M527.569824,253.024918 
	C527.803589,253.575546 527.678528,254.203674 527.196167,254.879852 
	C526.962952,254.319397 527.086914,253.710922 527.569824,253.024918 
z"/>
<path fill="#E2D3B8" opacity="1.000000" stroke="none" 
	d="
M585.321289,233.040741 
	C585.194092,232.731155 585.363403,232.387543 585.855957,232.011169 
	C585.992065,232.321167 585.804932,232.663940 585.321289,233.040741 
z"/>
<path fill="#E2D3B8" opacity="1.000000" stroke="none" 
	d="
M584.365234,234.105789 
	C584.176331,233.710144 584.295898,233.338364 584.744873,232.997345 
	C584.940735,233.395294 584.807251,233.762482 584.365234,234.105789 
z"/>
<path fill="#D7C6A3" opacity="1.000000" stroke="none" 
	d="
M530.611694,248.797241 
	C530.800781,249.116455 530.718567,249.555801 530.290527,249.992386 
	C530.076477,249.632217 530.208435,249.274811 530.611694,248.797241 
z"/>
<path fill="#D7C6A3" opacity="1.000000" stroke="none" 
	d="
M521.672485,260.973206 
	C521.847595,261.320435 521.740295,261.701324 521.297119,262.049622 
	C521.104126,261.680298 521.247070,261.343597 521.672485,260.973206 
z"/>
<path fill="#D7C6A3" opacity="1.000000" stroke="none" 
	d="
M519.649536,263.911926 
	C519.739075,264.217682 519.499084,264.521729 518.982544,264.947510 
	C518.910645,264.682892 519.115295,264.296539 519.649536,263.911926 
z"/>
<path fill="#0046A4" opacity="1.000000" stroke="none" 
	d="
M602.279175,332.067535 
	C605.090210,331.065247 607.621216,330.324646 610.566833,329.462708 
	C610.027466,334.337769 604.970886,339.270386 601.567749,338.798676 
	C600.727112,338.682129 599.586792,336.557556 599.638184,335.403015 
	C599.685242,334.345459 601.155823,333.351288 602.279175,332.067535 
z"/>
</svg>